<?xml version="1.0" encoding="UTF-8" standalone="no"?>
<!-- Created with Inkscape (http://www.inkscape.org/) -->

<svg
   xmlns:osb="http://www.openswatchbook.org/uri/2009/osb"
   xmlns:dc="http://purl.org/dc/elements/1.1/"
   xmlns:cc="http://creativecommons.org/ns#"
   xmlns:rdf="http://www.w3.org/1999/02/22-rdf-syntax-ns#"
   xmlns:svg="http://www.w3.org/2000/svg"
   xmlns="http://www.w3.org/2000/svg"
   xmlns:sodipodi="http://sodipodi.sourceforge.net/DTD/sodipodi-0.dtd"
   xmlns:inkscape="http://www.inkscape.org/namespaces/inkscape"
   id="svg3055"
   version="1.1"
   inkscape:version="0.48.2 r9819"
   width="3264"
   height="2448"
   sodipodi:docname="frontend_frogs.svg"
   inkscape:export-filename="/Users/tron/Downloads/frontend_frogs.png"
   inkscape:export-xdpi="90"
   inkscape:export-ydpi="90">
  <metadata
     id="metadata3061">
    <rdf:RDF>
      <cc:Work
         rdf:about="">
        <dc:format>image/svg+xml</dc:format>
        <dc:type
           rdf:resource="http://purl.org/dc/dcmitype/StillImage" />
        <dc:title></dc:title>
      </cc:Work>
    </rdf:RDF>
  </metadata>
  <defs
     id="defs3059"><linearGradient
   id="linearGradient6507"
   osb:paint="solid">
  <stop
     style="stop-color:#ffffff;stop-opacity:1;"
     offset="0"
     id="stop6509" />
</linearGradient>
<linearGradient
   id="linearGradient5040">
  <stop
     style="stop-color:#54c05c;stop-opacity:1;"
     offset="0"
     id="stop5042" />
  <stop
     style="stop-color:#497433;stop-opacity:1;"
     offset="1"
     id="stop5044" />
</linearGradient>
<inkscape:path-effect
   effect="bend_path"
   id="path-effect4325"
   is_visible="true"
   bendpath="m 11.974929,1185.1459 c 255.387911,0 169.216151,-355.20213 967.010341,-58.2164"
   prop_scale="1"
   scale_y_rel="false"
   vertical="false"
   bendpath-nodetypes="cc" />
<inkscape:path-effect
   effect="bend_path"
   id="path-effect4313"
   is_visible="true"
   bendpath="M 256,305.7085 441.84589,188.80572"
   prop_scale="1"
   scale_y_rel="false"
   vertical="false"
   bendpath-nodetypes="cc" />
<inkscape:path-effect
   effect="skeletal"
   id="path-effect4311"
   is_visible="true"
   pattern="M 0,0 1,0"
   copytype="single_stretched"
   prop_scale="1"
   scale_y_rel="false"
   spacing="0"
   normal_offset="0"
   tang_offset="0"
   prop_units="false"
   vertical_pattern="false"
   fuse_tolerance="0" />
<inkscape:path-effect
   effect="vonkoch"
   id="path-effect4309"
   is_visible="true"
   ref_path="M 256,305.7085 400.0949,268.13261"
   generator="m 256,480.523 49.42333,0 m 49.42334,0 49.42333,0"
   similar_only="false"
   nbgenerations="1"
   drawall="true"
   maxComplexity="1000"
   ref_path-nodetypes="cc" />
<inkscape:path-effect
   effect="envelope"
   id="path-effect4307"
   is_visible="true"
   yy="true"
   xx="true"
   bendpath1="M 256,130.894 425.1455,76.617707"
   bendpath2="m 404.27,130.894 c -265.18854,-168.534676 -4.88728,227.83217 0,349.629"
   bendpath3="m 256,480.523 c 223.47027,-3.05346 112.36134,-0.2371 148.27,0"
   bendpath4="m 256,130.894 c -313.910383,107.21893 -18.46829,232.53744 0,349.629"
   bendpath1-nodetypes="cc"
   bendpath2-nodetypes="cc"
   bendpath3-nodetypes="cc"
   bendpath4-nodetypes="cc" />
<inkscape:path-effect
   effect="skeletal"
   id="path-effect4305"
   is_visible="true"
   pattern="M 0,0 1,0"
   copytype="single"
   prop_scale="1"
   scale_y_rel="false"
   spacing="0"
   normal_offset="0"
   tang_offset="0"
   prop_units="false"
   vertical_pattern="false"
   fuse_tolerance="0" />
<inkscape:path-effect
   effect="skeletal"
   id="path-effect4303"
   is_visible="true"
   pattern="M 0,0 1,0"
   copytype="single_stretched"
   prop_scale="1"
   scale_y_rel="false"
   spacing="0"
   normal_offset="0"
   tang_offset="0"
   prop_units="false"
   vertical_pattern="false"
   fuse_tolerance="0" />
<inkscape:path-effect
   effect="bend_path"
   id="path-effect4099"
   is_visible="true"
   bendpath="M 74.558442,256 414.70185,150.10663"
   prop_scale="1"
   scale_y_rel="false"
   vertical="false"
   bendpath-nodetypes="cc" />
<inkscape:path-effect
   effect="envelope"
   id="path-effect4097"
   is_visible="true"
   yy="true"
   xx="true"
   bendpath1="M 74.633,0 437.367,0"
   bendpath2="m 437.367,0 0,512"
   bendpath3="m 74.633,512 362.734,0"
   bendpath4="m 74.633,0 0,512" />

	

		
	
			
			
			
			
			
			
			
		
	

		
	
			
			
			
			
			
			
			
		</defs>
  <sodipodi:namedview
     pagecolor="#ffffff"
     bordercolor="#666666"
     borderopacity="1"
     objecttolerance="10"
     gridtolerance="10"
     guidetolerance="10"
     inkscape:pageopacity="0"
     inkscape:pageshadow="2"
     inkscape:window-width="1916"
     inkscape:window-height="1036"
     id="namedview3057"
     showgrid="false"
     inkscape:zoom="0.34354575"
     inkscape:cx="1977.2551"
     inkscape:cy="1149.7044"
     inkscape:window-x="0"
     inkscape:window-y="0"
     inkscape:window-maximized="1"
     inkscape:current-layer="svg3055"
     showguides="true"
     inkscape:guide-bbox="true" />
  <path
     style="fill:#fffff6;stroke:#000000;stroke-width:12;stroke-miterlimit:4;stroke-opacity:1;stroke-dasharray:none;fill-opacity:1"
     d="m 872.28274,1419.1335 c -54.8023,-98.8071 -10.2099,-150.958 -12.9346,-155.8626 0,0 183.14306,-102.673 322.48046,-45.1908 27.9961,11.5495 61.3604,112.7697 43.0772,167.415 -7.4442,22.2495 -31.5706,43.4931 -55.0291,43.8851 -23.9721,0.4006 -57.701,-42.9417 -57.701,-42.9417 -81.7465,101.948 -143.61088,3.2031 -143.61088,3.2031 0,0 -17.69428,30.2182 -26.97748,46.6854"
     id="path3882"
     inkscape:connector-curvature="0"
     sodipodi:nodetypes="cccaaccc" />
  <path
     style="fill-opacity:1;fill-rule:nonzero;stroke:none;fill:#338833"
     d="m 1460.1562,348.8125 c -51.9084,2.13372 -101.5973,24.88821 -140.5937,58.5625 -33.2361,30.09158 -54.372,72.11601 -62.5752,115.94072 -15.4816,60.93079 -22.2514,124.36589 -45.1435,183.15303 -8.1409,17.21618 -25.5791,26.40164 -38.7237,39.42146 -38.6157,33.88842 -77.6339,69.40374 -101.6513,115.57854 -6.0791,12.02859 -12.2661,24.59447 -14.3438,38 1.2353,11.81616 13.664,17.13435 21.8675,23.67336 21.952,14.04076 44.4683,26.97978 64.5075,43.73289 34.7316,26.65602 67.7624,55.6813 99.0312,86.25 -31.7662,7.5748 -64.651,9.8005 -96.8392,15.4616 -14.8089,2.6088 -30.3752,4.5814 -43.8795,11.2884 -6.132,5.5999 -2.9748,14.871 1.6563,20.3125 18.4158,28.236 44.6166,50.3238 70.4687,71.6563 58.5746,46.5864 124.5725,82.8667 189.2187,120.1562 43.7293,-69.5635 93.2434,-136.2791 154.5938,-191.25 13.2692,-12.4129 26.9234,-24.3898 41.875,-34.8125 -26.5284,20.8318 -50.6482,44.6337 -74.2695,68.6911 -69.8115,72.0723 -126.6062,156.5153 -166.7305,248.5589 -19.8167,44.5925 -35.3395,91.0805 -48.875,137.875 -3.4438,6.3371 -0.7624,15.7574 6.8866,17.3376 64.3812,33.3271 123.4051,77.2212 173.2588,129.8139 68.7235,71.3132 123.9344,154.7046 171.7921,241.3485 3.9476,7.2667 0.6601,2.3679 -1.8389,-1.7565 -14.0002,-24.2075 -27.4786,-48.6045 -42.6054,-72.1593 -61.732,-98.5794 -137.9146,-190.2876 -234.4354,-256.3858 -58.5784,-39.834 -125.8474,-70.3595 -197.4246,-75.4732 -26.1327,-2.368 -52.3717,-3.1711 -78.5707,-4.4752 -16.3942,13.3971 -29.4539,31.4807 -34.4063,52.4063 -17.0121,54.8091 -17.6091,113.7156 -8.7812,170.0937 6.2305,37.5156 24.6025,71.3175 42.1395,104.5401 39.873,72.5087 91.5999,139.3346 156.3605,191.2099 52.2761,41.6141 114.4707,70.703 180.3102,82.3962 13.804,2.5408 27.7113,4.4743 41.6273,6.2913 -91.8279,1.859 -182.6492,-13.6627 -272.9375,-28.4375 3.6938,-1.994 5.4805,-6.8839 4.0938,-10.8125 17.4019,9.1673 36.2671,17.7588 56.0937,18.75 8.2277,-2.5845 45.1107,2.239 37.3424,0.1348 -15.4405,-8.9601 -65.9918,-40.8287 -74.2487,-56.4473 -18.8284,-27.2899 -41.7088,-52.9314 -71.125,-69 -9.3878,-3.8526 -20.191,-6.9641 -30.3124,-4.6875 -4.059,1.8932 -5.9107,6.8259 -5.0626,11.0625 -14.3575,-14.954 -34.2999,-24.0722 -55.0937,-24.7813 -13.497,-0.2905 -28.1104,0.4587 -39.96875,7.3438 -4.71024,2.1305 -8.08216,8.063 -4.34375,12.5938 0.72013,1.4809 4.57539,3.5443 1.02916,2.3227 -24.7037,-6.1381 -52.14279,-7.1314 -75.36952,4.6384 -41.60932,19.6042 -66.7287,70.2167 -54.37839,115.1951 3.63751,12.8772 10.25076,26.7845 23.8125,31.5 43.10379,13.8365 88.50634,19.6616 133.50005,24.1875 165.5823,17.4453 332.3929,14.6588 498.5618,9.9509 49.7854,-0.684 100.7432,-3.5942 149.0601,10.3967 37.9482,10.2686 75.1784,23.5944 113.1745,33.7073 79.3746,22.7692 159.317,44.7945 241.0137,57.6116 23.9312,4.2176 48.2567,5.0377 72.5335,4.5108 47.3889,-0.1446 95.3881,0.049 141.8751,-9.9898 32.599,-7.8084 62.5081,-24.433 87.0566,-47.1061 55.1242,-47.3157 100.2109,-106.1072 135.355,-169.7119 18.3443,-33.9489 33.5163,-69.8727 41.8384,-107.682 -6.9393,45.5421 -30.8312,85.9436 -50.3125,127.125 -2.6332,5.4942 -39.0481,31.8469 -31.7301,35.5432 9.3343,3.5612 49.1607,-22.9993 56.3505,-27.1842 64.181,-46.4037 119.8103,-107.01 151.5633,-180.1882 30.5469,-68.6957 41.3087,-145.5151 34.1913,-220.2333 -3.2647,-30.7864 -18.273,-61.9066 -45.4375,-78.125 -22.3912,-14.0948 -50.4201,-14.163 -75.7196,-9.3399 -26.3279,4.9702 -51.9454,14.2717 -75.9054,25.9336 -6.9872,8.0324 -1.157,18.9749 -0.4829,28.0998 9.3571,46.3743 20.3181,92.4743 26.6704,139.4002 -25.7363,-163.1624 -79.909,-320.8446 -150.1521,-469.9748 -27.6068,-57.4361 -60.3581,-112.4583 -98.7229,-163.3376 -52.4131,-74.1536 -108.9886,-145.20599 -159.9366,-220.3677 -35.7546,-54.66232 -65.1414,-115.5128 -71.1485,-181.37555 -4.9223,-44.56391 -8.2369,-89.34636 -20.4189,-132.69275 -16.56,-64.79172 -44.1003,-128.72209 -91.0898,-177.2203 -24.6144,-23.74709 -54.9622,-41.53576 -87.5984,-51.88529 -24.7645,-5.54656 -50.4944,-3.22263 -75.6096,-1.84577 -39.1248,3.84659 -75.9441,19.60718 -109.1357,40.07481 -11.4212,6.69421 -22.6662,13.7185 -34.0625,20.46875 -23.1785,-37.61694 -61.06,-69.10301 -106.3024,-74.32892 -7.3595,-1.04763 -14.9431,-1.38874 -22.4164,-1.23358 z m -28.7187,72.21875 c 29.5323,-1.91059 59.3926,13.14178 74.4493,38.70285 13.8744,22.78987 9.7773,50.48645 7.905,75.81754 -2.552,21.93086 -6.7963,45.02217 -19.323,63.41711 -11.2527,15.05261 -30.5715,19.84404 -46.8887,27.8297 -38.978,16.44013 -79.2291,30.2466 -120.6381,39.07825 -15.3065,2.7393 -31.1465,6.4668 -46.6295,4.1858 -1.9673,-4.17047 -0.6588,-9.47522 -1.3038,-14.03121 0.6279,-54.72894 17.2498,-108.3775 43.4626,-156.1546 17.6392,-30.89929 42.0827,-60.35762 76.4349,-72.93919 10.3968,-3.81774 21.3542,-5.82946 32.5313,-5.90625 z M 1782.75,434.1875 c 24.1671,-0.0876 50.3769,3.02166 69.0247,19.75738 36.4378,29.47146 53.6842,75.46931 65.6315,119.30512 13.5803,53.52802 16.2544,109.25966 17.0313,164.28125 -2.934,5.95116 -9.5702,9.37295 -14.3437,13.84375 -20.2387,14.87463 -46.5557,12.13723 -70.1167,9.74566 -47.1617,-6.27946 -91.7584,-24.06725 -135.4216,-42.30927 -40.7111,-17.9764 -81.2068,-38.8423 -114.5555,-68.68639 -11.6788,-11.33888 -25.0204,-25.79101 -22.8125,-43.4375 2.0129,-16.55823 8.4697,-32.20397 13.9375,-47.875 21.7466,-53.41826 65.5959,-98.98964 120.8125,-117.1875 22.828,-7.39197 46.9994,-7.36112 70.8125,-7.4375 z m -463.375,398.375 c 7.4682,1.35497 15.8539,4.44658 19.875,10.96875 -2.9186,6.5454 -10.5098,9.13996 -15.2188,14.0625 -2.2559,-0.91574 -2.5246,-5.16941 -3.7812,-7.3125 -1.8929,-5.6693 -2.3753,-11.86654 -1.5,-17.8125 l 0.625,0.0937 z m 105.75,42.1875 c 6.2702,0.43402 10.0855,11.79352 2.625,13.4375 -6.0034,2.12864 -12.9218,3.40719 -18.7812,4.90625 2.458,-7.88251 7.8596,-15.93331 16.1562,-18.34375 z m 823.2812,428.7188 c 24.2774,157.8394 43.8024,316.3545 65.4293,474.5672 8.5506,63.9379 17.1236,127.8725 25.6957,191.8078 -66.0813,42.4192 -131.801,85.3982 -198.2187,127.2812 -7.8165,-24.8428 -11.7487,-50.6457 -17.5276,-76.067 -1.1987,-5.6601 -2.3765,-11.3229 -3.6599,-16.9642 -62.4468,-2.0533 -124.8957,-4.047 -187.3438,-6.0626 -13.1997,-44.6569 -27.6202,-88.9001 -39.25,-133.9687 22.8112,-9.7573 46.5553,-16.9497 70.6876,-22.5625 10.7314,23.1169 15.4752,48.2409 23.6874,72.25 37.7606,0.8919 75.5209,1.7905 113.2813,2.6875 -12.5268,-53.4737 -22.3845,-107.5789 -35.375,-160.9687 -8.8723,-6.6128 -19.2417,0.8354 -28.4964,2.0116 -54.3853,14.6299 -107.9187,31.8281 -162.5973,45.3946 -28.3535,-89.9414 -56.1685,-180.5547 -82.25,-270.875 15.2124,-3.207 30.3516,-8.8486 45.6271,-12.7193 54.0357,-15.4055 107.9958,-30.915 161.8103,-47.1245 5.842,-10.2786 -1.1772,-21.6164 -1.9337,-32.2787 -4.6299,-21.2893 -9.7288,-42.4649 -13.5037,-63.9713 77.8583,-24.7491 156.9762,-45.2064 235.8476,-66.5686 9.29,-2.3521 18.5974,-4.6447 27.9336,-6.8064 z M 876.15625,1415.625 c -14.14096,1.2351 -26.876,9.7249 -34.41045,21.5585 -11.41573,13.6405 -21.44036,32.6176 -14.71455,50.6915 4.84177,13.465 18.82786,22.0353 30.125,27.5312 -10.80363,4.4983 -12.55242,17.8381 -17.11686,27.3728 -6.20721,16.0642 -12.70229,35.5517 -3.69564,51.7835 7.26001,12.4716 21.88684,19.229 35.84375,19.875 -7.79615,4.7303 -5.88392,15.1485 -7.8125,22.75 -2.05332,18.9006 10.83124,38.9798 30.28125,41.4375 19.83236,3.8875 40.50815,-0.6345 58.90625,-8.1875 16.82646,-8.168 29.48552,-26.3041 26.49804,-45.5579 -1.52883,-16.7571 -9.43721,-33.6708 -23.40429,-43.3796 -3.22433,-1.5645 -7.07047,-1.4072 -10.03125,0.6875 15.01906,-22.637 15.71242,-54.6995 0.96875,-77.5 -1.85376,-1.4142 -4.68241,1.6041 -2.23706,-1.3702 8.65328,-12.7001 9.29625,-28.8382 7.36206,-43.5985 -1.66797,-8.0944 -8.7559,-13.1625 -12.25169,-20.4194 -4.79089,-7.9313 -12.50113,-14.2521 -21.68581,-16.0494 -13.70397,-4.5781 -28.10265,-7.7631 -42.625,-7.625 z m 1614.53125,373.6875 c 1.7106,12.8549 -0.6616,-4.7821 0,0 z M 2492,1799.25 c 1.3373,10.4997 -1.5187,-11.4241 0,0 z m 3.9375,34.8125 c 0.388,4.4484 1.3232,14.9084 0.3437,4.4687 -0.1321,-1.5827 -0.9468,-10.8799 -0.3437,-4.4687 z m 2.1563,83.9687 c 0.088,0.9236 -0.2682,-0.041 0,0 z m -1478.6563,57.5626 c 15.7181,6.5409 30.8079,17.5405 36.5313,34.2812 -8.6099,-14.9286 -21.5526,-27.0031 -37.125,-34.5312 z m 1520.8437,35.125 c -16.7648,0.7621 -26.9553,16.2021 -35.5943,28.6479 -11.0082,14.9287 -23.92,28.1615 -36.9057,41.3208 -15.8944,-5.0173 -34.522,-2.6977 -46.625,9.3437 -14.5948,14.9316 -24.7791,33.3741 -38.0624,49.375 74.2773,3.9446 148.479,9.3461 222.7183,13.7728 36.2809,0.2499 73.0598,0.6852 108.6879,-6.679 19.6546,-7.3839 28.2605,-33.1249 18.5312,-51.4688 -7.7431,-19.8262 -18.7359,-39.5544 -36.0312,-52.4687 -12.8729,-8.522 -29.3798,-6.7376 -43.25,-1.7813 -34.3524,10.7126 -63.4212,34.4774 -98.875,41.5938 22.9578,-6.3531 43.7548,-18.2937 64.9375,-28.7812 7.2188,-4.3305 15.1975,-8.4637 20.6563,-14.9063 3.4864,-8.4626 -5.0971,-15.2172 -11.9063,-18.2813 -10.2914,-6.5136 -23.4115,-12.4273 -35.4375,-6.8124 -15.8892,5.5106 -28.4668,17.7346 -39.2812,30.25 4.1323,-6.096 10.2067,-11.0015 13.75,-17.25 1.9777,-7.742 -6.2535,-13.1878 -13.0313,-13.8126 -4.608,-1.4125 -9.4362,-2.2878 -14.2813,-2.0624 z m -0.2187,50.6562 c -5.8613,7.7959 -23.448,14.0827 -29.4913,21.7375 -11.6295,0.34 -12.3723,1.68 -23.3837,0.45 20.0994,-2.148 41.9286,-7.8975 54.7187,-24.6875 -0.6145,0.8333 -1.2291,1.6667 -1.8437,2.5 z"
     id="path4999"
     inkscape:connector-curvature="0"
     sodipodi:nodetypes="ccccccccccccccccccccccccccccccccccccccccccccccccccccccccccccccccccccccccccccccccccccccccccccccccccccccccccccccccccccccccccccccccccccccccccccccccccccccccccccccccccccccccccccccccccccccccccccccccc" />
  <path
     style="fill:none;stroke:#000000;stroke-width:12;stroke-linecap:round;stroke-miterlimit:4;stroke-opacity:1;stroke-dasharray:none"
     d="m 2431.9905,2072.5042 c 0,0 80.0476,23.2865 132.4424,8.7324 52.3947,-14.5541 131.1075,-106.576 171.7384,20.3758 25.6126,80.0271 -155.8169,48.5014 -157.1844,49.4839 0,0 -185.5862,-14.5541 -197.2295,-5.8216"
     id="path3864"
     inkscape:connector-curvature="0"
     sodipodi:nodetypes="csscc" />
  <path
     style="fill:none;stroke:#000000;stroke-width:12;stroke-linecap:round;stroke-miterlimit:4;stroke-opacity:1;stroke-dasharray:none;fill-opacity:1"
     d="m 2453.8216,1598.0404 c 0,0 227.044,-130.9869 206.6683,130.9869 -20.3758,261.9739 -229.9548,352.2093 -229.9548,352.2093 l 0,0"
     id="path3862"
     inkscape:connector-curvature="0"
     sodipodi:nodetypes="cscc" />
  <path
     style="fill:none;fill-opacity:1;stroke:#000000;stroke-width:15;stroke-linecap:round;stroke-miterlimit:4;stroke-opacity:1;stroke-dasharray:none"
     d="m 1361.588,1291.5518 c -295.5753,-159.1965 -259.46,-217.2444 -272.9412,-214.5482 l 154.2735,-23.2866 c 0,0 -97.6108,-96.32491 -156.1631,-125.46982 -33.3605,-16.60549 -30.6952,-10.3253 -29.1003,-29.1568 6.6507,-78.52634 147.4228,-180.11773 147.4228,-180.11773 l 2.9108,-2.91082 c 61.1273,-128.0761 6.5809,-291.02856 195.025,-358.03091 130.9869,-46.57314 186.2925,66.94887 186.2925,66.94887 0,0 151.3626,-125.16528 282.3496,-29.10821 130.9869,96.05708 133.8977,323.10108 133.8977,323.10108 0,0 -3.1326,62.44941 54.4701,161.80273 58.7357,101.3077 193.4392,243.78061 262.8093,382.52071 174.6493,349.2984 176.876,605.3087 177.5601,634.5589 2.1197,90.6364 -132.3866,301.7953 -241.5981,340.566 -230.4199,81.8003 -597.5563,-100.5651 -672.3995,-93.1463 -241.6108,23.9495 -620.00481,2.9108 -704.4186,-29.1082 -57.86228,-21.9477 -22.82948,-211.2149 136.8086,-142.6302 77.1427,33.1425 -2.9109,81.5029 151.3626,104.7895 154.2735,23.2865 212.4899,34.9299 253.2414,26.1974"
     id="path3870"
     inkscape:connector-curvature="0"
     sodipodi:nodetypes="cccssccscscssssssssc" />
  <path
     style="fill:#ffffcc;stroke:#000000;stroke-width:12;stroke-linecap:round;stroke-miterlimit:4;stroke-opacity:1;stroke-dasharray:none;fill-opacity:1"
     d="m 1577.1349,601.01128 c -0.1651,0.4952 35.8865,-188.63572 224.663,-167.29903 138.7612,15.68366 134.6299,290.41327 133.8977,291.08205 0,0 0.6016,85.87858 -200.8466,2.91081 C 1547.3811,650.49523 1577.3,600.51608 1577.1349,601.01128 z"
     id="path3866"
     inkscape:connector-curvature="0"
     sodipodi:nodetypes="zscsz" />
  <path
     style="fill:#ffffcc;stroke:#000000;stroke-width:12;stroke-linecap:round;stroke-miterlimit:4;stroke-opacity:1;stroke-dasharray:none;fill-opacity:1"
     d="m 1277.8502,669.4887 c 0,0 -2.9108,-125.16528 69.8597,-206.66825 72.7705,-81.50297 168.8276,-34.92985 168.8276,32.01902 0,66.94887 -8.7325,104.78954 -46.5732,122.25446 -84.3249,38.9191 -165.9167,61.12724 -192.1141,52.39477 z"
     id="path3868"
     inkscape:connector-curvature="0"
     sodipodi:nodetypes="csssc" />
  <path
     style="fill:none;stroke:#000000;stroke-width:12;stroke-linecap:round;stroke-miterlimit:4;stroke-opacity:1;stroke-dasharray:none"
     d="m 1571.843,1056.6278 c 0,0 -113.6868,74.1944 -208.4276,236.203 -38.0316,65.0347 -73.0101,144.2201 -96.356,238.4373"
     id="path3872"
     inkscape:connector-curvature="0"
     sodipodi:nodetypes="csc" />
  <path
     style="fill:none;stroke:#000000;stroke-width:12;stroke-linecap:round;stroke-miterlimit:4;stroke-opacity:1;stroke-dasharray:none"
     d="m 1631.9714,1929.5511 c 1.0269,7.8732 -207.9805,-463.7761 -563.7003,-427.5677 -53.3844,5.4339 -64.4796,193.029 -35.1202,259.7048 77.0451,174.9711 199.8441,312.1412 378.6654,340.9553 19.4598,3.1357 39.583,4.9881 60.3829,5.4664"
     id="path3874"
     inkscape:connector-curvature="0"
     sodipodi:nodetypes="csssc" />
  <path
     style="fill:#000000;fill-opacity:1;stroke:#000000;stroke-width:13.55756283;stroke-miterlimit:4;stroke-opacity:1;stroke-dasharray:none"
     d="m 1677.3811,574.62085 c 0,0 70.5509,-87.9714 183.4723,80.98134 31.53,47.17507 -41.3999,-28.97861 -71.4562,-45.42119 -14.5071,-7.9363 -35.0294,-22.22267 -49.5592,-27.28707 -25.1463,-8.76487 -62.4569,-8.27308 -62.4569,-8.27308 z"
     id="path3876"
     inkscape:connector-curvature="0"
     sodipodi:nodetypes="csssc" />
  <path
     style="fill:#000000;fill-opacity:1;stroke:#000000;stroke-opacity:1;stroke-width:12;stroke-miterlimit:4;stroke-dasharray:none"
     d="m 1337.4186,583.19322 c 0,0 57.6119,-79.14084 103.0844,-37.16467 25.2632,23.32077 1.1358,17.49892 -32.6605,17.81299 -26.2323,0.24378 -59.9264,6.22982 -70.4239,19.35168 z"
     id="path3878"
     inkscape:connector-curvature="0"
     sodipodi:nodetypes="cssc" />
  <path
     style="fill:none;stroke:#000000;stroke-width:12;stroke-linecap:round;stroke-miterlimit:4;stroke-opacity:1;stroke-dasharray:none;fill-opacity:1"
     d="m 1204.1163,1415.5164 c 1.0227,10.2274 8.656,42.9636 13.8781,100.6981"
     id="path3886"
     inkscape:connector-curvature="0"
     sodipodi:nodetypes="cc" />
  <path
     style="fill:none;stroke:#000000;stroke-width:12;stroke-linecap:round;stroke-miterlimit:4;stroke-opacity:1;stroke-dasharray:none;fill-opacity:1"
     d="m 858.25834,1421.3684 c 0,0 -77.9161,64.038 6.4977,96.057 84.4138,32.0191 97.9387,-44.6915 83.3846,-65.0672 -14.5541,-20.3758 -24.906,-50.4828 -89.8823,-30.9898 z"
     id="path3888"
     inkscape:connector-curvature="0"
     sodipodi:nodetypes="cssc" />
  <path
     style="fill:none;stroke:#000000;stroke-width:12;stroke-linecap:round;stroke-miterlimit:4;stroke-opacity:1;stroke-dasharray:none;fill-opacity:1"
     d="m 853.11274,1517.4254 c 0,0 -55.3056,87.3247 17.4649,96.0571 72.7705,8.7325 105.89368,-62.435 76.1808,-106.8478"
     id="path3890"
     inkscape:connector-curvature="0"
     sodipodi:nodetypes="csc" />
  <path
     style="fill:none;stroke:#000000;stroke-width:12;stroke-linecap:round;stroke-miterlimit:4;stroke-opacity:1;stroke-dasharray:none;fill-opacity:1"
     d="m 870.57764,1613.4825 c 0,0 -30.0435,77.7 57.0107,63.8615 90.85946,-14.4434 37.3306,-105.0078 23.11,-95.5274"
     id="path3892"
     inkscape:connector-curvature="0"
     sodipodi:nodetypes="csc" />
  <path
     style="fill:none;stroke:#000000;stroke-width:12;stroke-linecap:round;stroke-miterlimit:4;stroke-opacity:1;stroke-dasharray:none;fill-opacity:1"
     d="m 920.06164,1680.4314 c 0,0 -15.23015,52.3948 104.11356,52.3948"
     id="path3896"
     inkscape:connector-curvature="0"
     sodipodi:nodetypes="cc" />
  <path
     style="fill:none;stroke:#000000;stroke-width:12;stroke-linecap:round;stroke-miterlimit:4;stroke-opacity:1;stroke-dasharray:none;fill-opacity:1"
     d="m 974.27229,1958.9822 c 0,0 76.19641,-52.3501 132.01611,30.1373 25.4267,37.5742 45.9646,82.5552 128.9035,97.6159"
     id="path3900"
     inkscape:connector-curvature="0"
     sodipodi:nodetypes="csc" />
  <path
     style="fill:none;fill-opacity:1;stroke:#000000;stroke-width:12;stroke-linecap:round;stroke-miterlimit:4;stroke-opacity:1;stroke-dasharray:none"
     d="m 2650.5518,2037.3977 c 0,0 -50.8428,-69.4575 -108.1801,19.7561 -20.6389,32.113 -93.1788,25.1449 -50.0941,25.9645"
     id="path3902"
     inkscape:connector-curvature="0"
     sodipodi:nodetypes="csc" />
  <path
     style="fill:none;stroke:#000000;stroke-width:12;stroke-linecap:round;stroke-miterlimit:4;stroke-opacity:1;stroke-dasharray:none;fill-opacity:1"
     d="m 2567.8431,2020.9619 c 0,0 -32.5488,-26.8733 -55.6285,9.5851 -33.0275,52.1726 -52.8085,46.3964 -52.8085,46.3964"
     id="path3904"
     inkscape:connector-curvature="0"
     sodipodi:nodetypes="csc" />
  <path
     style="fill:none;stroke:#000000;stroke-width:12;stroke-linecap:round;stroke-miterlimit:4;stroke-opacity:1;stroke-dasharray:none;fill-opacity:1"
     d="m 1085.3829,1960.6873 c 36.6736,-25.4965 101.1694,53.3728 112.6029,76.8604 22.5839,46.3935 106.3185,55.2906 165.8976,68.408"
     id="path3906"
     inkscape:connector-curvature="0"
     sodipodi:nodetypes="csc" />
  <path
     style="fill:#000000;stroke:#000000;stroke-width:12;stroke-linecap:round;stroke-linejoin:bevel;stroke-miterlimit:4;stroke-opacity:1;stroke-dasharray:none;fill-opacity:1"
     d="m 1315.5143,829.40726 c 13.2568,10.60541 0.2345,40.57712 6.5279,28.07907 0.9274,-1.84182 7.2405,-10.65099 18.1769,-11.73623 10.3685,-1.02889 -24.7048,-16.34284 -24.7048,-16.34284 z"
     id="path3908"
     inkscape:connector-curvature="0"
     sodipodi:nodetypes="cssc" />
  <path
     sodipodi:type="arc"
     style="opacity:1;fill:#ffffff;stroke:#000000;stroke-width:11.96743603000000000;stroke-linecap:round;stroke-miterlimit:4;stroke-opacity:1;stroke-dasharray:none;fill-opacity:1"
     id="path3912"
     sodipodi:cx="911.29498"
     sodipodi:cy="1404.9763"
     sodipodi:rx="24.184565"
     sodipodi:ry="24.184565"
     d="m 935.47955,1404.9763 a 24.184565,24.184565 0 1 1 -48.36913,0 24.184565,24.184565 0 1 1 48.36913,0 z"
     transform="matrix(1,0,0,1.0054495,110.11698,71.454767)" />
  <path
     sodipodi:type="arc"
     style="fill:#ffffff;stroke:#000000;stroke-width:12;stroke-linecap:round;stroke-miterlimit:4;stroke-opacity:1;stroke-dasharray:none;fill-opacity:1"
     id="path3914"
     sodipodi:cx="953.48938"
     sodipodi:cy="1378.2189"
     sodipodi:rx="20.068043"
     sodipodi:ry="19.038914"
     d="m 973.55742,1378.2189 a 20.068043,19.038914 0 1 1 -40.13608,0 20.068043,19.038914 0 1 1 40.13608,0 z"
     transform="translate(131.72868,79.243043)" />
  <path
     style="opacity:1;fill:#000000;stroke:#000000;stroke-width:12;stroke-linecap:round;stroke-linejoin:bevel;stroke-miterlimit:4;stroke-opacity:1;stroke-dasharray:none;fill-opacity:1"
     d="m 1403.7339,895.04216 20.5826,-22.64087 10.2913,13.3787 z"
     id="path3920"
     inkscape:connector-curvature="0" />
  <path
     style="fill:#ffffff;stroke:#000000;stroke-width:12;stroke-linecap:butt;stroke-linejoin:miter;stroke-opacity:1;stroke-miterlimit:4;stroke-dasharray:none;fill-opacity:1"
     d="m 1017.81,1637.0453 c 0,0 -30.03885,2.1953 -31.23515,31.1344 -1.0071,24.3624 33.29335,29.5842 33.29335,29.5842"
     id="path3928"
     inkscape:connector-curvature="0"
     sodipodi:nodetypes="csc" />
  <g
     id="g4941"
     transform="translate(-6.7348699,4.6159364)">
    <switch
       style="fill:#ffffff;fill-opacity:1;stroke:none"
       inkscape:path-effect="#path-effect4099"
       transform="matrix(2.0616166,0,0,2.0616166,1577.1736,978.96266)"
       id="switch4043">
	<g
   style="fill:#ffffff;fill-opacity:1;stroke:none"
   transform="matrix(0.99958474,0.02881571,-0.02881571,0.99958474,-13.553692,11.373385)"
   id="g4045">
		<g
   style="fill:#ffffff;fill-opacity:1;stroke:none"
   id="g4047">
			<!-- If you would like to customize the color of the badge, these two HSL colors are the primary oranges -->

			<!--  The second one needs to be +6 hue, +9% saturation, and +3% lightness of the first -->

			<polygon
   style="fill:#ffffff;fill-opacity:1;stroke:none"
   d="M 464.14624,238.46486 z"
   points="463.88859,238.79596 "
   id="polygon4049" />

			<polygon
   style="fill:#ffffff;fill-opacity:1;stroke:none"
   d="M 464.14624,238.46486 z"
   points="463.88859,238.79596 "
   id="polygon4051" />

			<g
   style="fill:#ffffff;fill-opacity:1;stroke:none"
   id="g4053">
				<polygon
   d="M 464.14624,238.46486 z"
   style="fill:#ffffff;fill-opacity:1;stroke:none"
   points="463.88859,238.79596 "
   id="polygon4055" />

				<polygon
   d="M 464.14624,238.46486 z"
   style="fill:#ffffff;fill-opacity:1;stroke:none"
   points="463.88859,238.79596 "
   id="polygon4057" />

			</g>

			<g
   style="fill:#ffffff;fill-opacity:1;stroke:none"
   id="g4059">
				<path
   style="fill:#ffffff;fill-opacity:1;stroke:none"
   inkscape:original-d="m 108.382,0 h 23.077 v 22.8 h 21.11 V 0 h 23.078 V 69.044 H 152.57 v -23.12 h -21.11 v 23.12 H 108.383 V 0 z"
   inkscape:connector-curvature="0"
   d="m 48.153147,117.93239 22.375046,-6.9658 6.777259,21.76945 20.467878,-6.37206 -6.777259,-21.76944 22.376019,-6.966099 20.5232,65.923229 -22.37504,6.96579 -6.87238,-22.07498 -20.467881,6.37206 6.872378,22.07498 -22.375046,6.96579 -20.523205,-65.92323 z"
   id="path4061" />

				<path
   style="fill:#ffffff;fill-opacity:1;stroke:none"
   inkscape:original-d="M 205.994,22.896 H 185.678 V 0 h 63.72 V 22.896 H 229.073 V 69.044 H 205.995 V 22.896 z"
   inkscape:connector-curvature="0"
   d="m 149.60179,110.3293 -19.69803,6.13239 -6.80579,-21.861108 61.78177,-19.233887 6.80579,21.861106 -19.70675,6.135099 13.71741,44.06213 -22.37602,6.96609 -13.71741,-44.06212 z"
   id="path4063" />

				<path
   style="fill:#ffffff;fill-opacity:1;stroke:none"
   inkscape:original-d="m 259.511,0 h 24.063 L 298.376,24.26 313.163,0 h 24.072 V 69.044 H 314.253 V 34.822 l -15.877,24.549 h -0.397 L 282.091,34.822 v 34.222 h -22.58 V 0 z"
   inkscape:connector-curvature="0"
   d="m 194.68512,72.314085 23.33106,-7.263419 21.56299,18.695469 7.12597,-27.626911 23.33978,-7.266135 20.52321,65.923231 -22.28294,6.93712 -10.17243,-32.675178 -8.09691,28.231868 -0.38492,0.11983 -22.70187,-18.643596 10.17243,32.675176 -21.89316,6.81577 z"
   id="path4065" />

				<path
   style="fill:#ffffff;fill-opacity:1;stroke:none"
   inkscape:original-d="m 348.72,0 h 23.084 v 46.222 h 32.453 V 69.044 H 348.72 V 0 z"
   inkscape:connector-curvature="0"
   d="m 281.18057,45.386341 22.38184,-6.967908 13.7394,44.132777 31.46585,-9.795941 6.7838,21.790452 -53.84768,16.763849 z"
   id="path4067" />

			</g>

			<g
   style="fill:#ffffff;fill-opacity:1;stroke:none"
   id="g4069">
				<polygon
   d="M 463.99105,240.068 z"
   style="fill:#ffffff;fill-opacity:1;stroke:none"
   points="464.51077,239.60194 "
   id="polygon4071" />

				<polygon
   d="M 463.99105,240.068 z"
   style="fill:#ffffff;fill-opacity:1;stroke:none"
   points="464.51077,239.60194 "
   id="polygon4073" />

			</g>

		</g>

	</g>

</switch>
    <polygon
       style="fill:#ffffff;fill-opacity:1"
       transform="matrix(1.7915433,-0.51850907,0.43714479,2.0159364,1479.3109,1278.864)"
       id="polygon4543"
       points="107.644,470.877 74.633,100.62 437.367,100.62 404.321,470.819 255.778,512 " />
    <polygon
       style="fill:#3c8d31;fill-opacity:1"
       transform="matrix(1.8699498,-0.54162244,0.45627634,2.1058,1471.5342,1238.7657)"
       id="polygon4545"
       points="404.27,130.894 256,130.894 256,480.523 376.03,447.246 " />
    <g
       transform="matrix(1.8699498,-0.54162244,0.45627634,2.1058,1471.5342,1238.7657)"
       id="g4547">
				<polygon
   id="polygon4549"
   points="154.38,313.627 256,313.627 256,268.217 195.91,268.217 191.76,221.716 256,221.716 256,176.305 255.843,176.305 142.132,176.305 143.219,188.488 "
   style="fill:#3c6131;fill-opacity:1" />

				<polygon
   id="polygon4551"
   points="256,433.399 256,386.153 255.801,386.206 205.227,372.55 201.994,336.333 177.419,336.333 156.409,336.333 162.771,407.634 255.791,433.457 "
   style="fill:#3c6131;fill-opacity:1" />

			</g>
    <g
       style="fill:#ffffff;fill-opacity:1"
       transform="matrix(1.8699498,-0.54162244,0.45627634,2.1058,1471.5342,1238.7657)"
       id="g4563">
				<polygon
   id="polygon4565"
   points="348.937,407.634 349.62,399.962 360.291,280.411 361.399,268.217 349.162,268.217 255.843,268.217 255.843,313.627 311.761,313.627 306.49,372.521 255.843,386.191 255.843,433.435 "
   style="fill:#ffffff;fill-opacity:1" />

				<polygon
   id="polygon4567"
   points="365.385,221.716 365.385,221.716 365.531,221.716 366.442,211.509 368.511,188.488 369.597,176.305 255.843,176.305 255.843,204.509 255.843,221.605 255.843,221.716 "
   style="fill:#ffffff;fill-opacity:1" />

			</g>
  </g>
  <path
     style="fill:#338833;fill-opacity:1;fill-rule:nonzero;stroke:none"
     id="path4977"
     inkscape:connector-curvature="0" />
  <path
     style="fill:#338833;fill-opacity:1;fill-rule:nonzero;stroke:none"
     id="path4981"
     inkscape:connector-curvature="0" />
  <path
     style="fill:#ffff98;fill-opacity:1;fill-rule:nonzero;stroke:#000000;stroke-opacity:1"
     d="m 991.38378,1724.5937 c -35.18073,-4.0408 -58.5004,-15.2732 -63.76081,-30.7117 -3.10028,-9.0988 -3.2049,-8.9697 9.81878,-12.1106 6.3474,-1.5308 14.91619,-4.4515 19.04174,-6.4905 8.58644,-4.2436 18.68986,-13.0933 22.63623,-19.8273 10.96908,-18.7173 7.47002,-47.9915 -8.20749,-68.6664 -2.57525,-3.3961 -6.56636,-7.3325 -8.86913,-8.7476 -4.73123,-2.9073 -4.87334,-3.3838 -2.61871,-8.7798 2.45247,-5.8696 4.55128,-18.2606 4.55128,-26.8698 0,-10.4195 -2.46204,-20.7974 -7.37521,-31.0878 l -4.10208,-8.5916 2.08721,-5.3017 c 3.74013,-9.5002 4.62694,-14.3929 4.59833,-25.3697 -0.0322,-12.3487 -1.25484,-16.5686 -7.63973,-26.3686 l -4.11203,-6.3113 9.41811,-16.335 c 5.17996,-8.9842 10.0516,-17.3477 10.82588,-18.5857 1.37405,-2.1969 1.62396,-2.0356 10.43136,6.7285 38.46649,38.2776 82.18489,37.0685 123.50229,-3.4158 l 10.5366,-10.3241 12.129,11.835 c 12.7792,12.4696 22.9553,19.984 32.2233,23.795 10.441,4.2934 24.7867,2.8584 38.1131,-3.8124 l 4.742,-2.3737 2.2089,13.5792 c 4.9137,30.2059 9.2474,65.021 8.2214,66.047 -0.2633,0.2633 -7.6303,-1.1304 -16.3713,-3.097 -38.1111,-8.5745 -81.1397,-11.7902 -116.219,-8.6855 -14.6258,1.2944 -18.069,2.2017 -24.3314,6.4113 -21.4427,14.4139 -34.9501,54.984 -41.0744,123.3693 l -0.6121,6.8342 -5.8476,2.176 c -15.95073,5.9356 -24.89914,18.6661 -24.87649,35.3908 0.008,5.6155 0.59666,8.6793 2.41689,12.5708 4.0173,8.5888 14.40816,16.6095 26.0131,20.0796 l 4.2555,1.2725 1.1986,9.392 c 0.6592,5.1656 1.4573,10.434 1.7736,11.7076 0.5531,2.2274 0.3259,2.311 -5.9687,2.1965 -3.599,-0.065 -12.03965,-0.7502 -18.75702,-1.5217 l 0,0 z m 42.57272,-212.5832 c 12.6918,-5.4675 19.9591,-19.4828 17.3685,-33.4963 -1.9661,-10.6357 -7.2185,-17.5181 -16.8445,-22.0721 -11.2675,-5.3305 -24.0138,-3.5028 -33.2055,4.7614 -7.40549,6.6581 -10.0308,12.6028 -10.01199,22.6707 0.0183,9.7835 2.29553,15.6896 8.4053,21.7994 9.06979,9.0698 22.27779,11.5108 34.28819,6.3369 z m 63.6442,-32.0791 c 8.62,-4.1999 13.7358,-12.4599 13.7947,-22.2729 0.081,-13.5787 -9.9134,-24.2109 -23.9568,-25.4843 -10.2351,-0.9281 -20.2923,4.1702 -25.4141,12.8832 -2.3853,4.0578 -2.8543,6.0391 -2.8543,12.0594 0,8.1077 1.7508,12.6382 6.9318,17.9375 7.9848,8.167 20.7042,10.1364 31.4987,4.8771 z"
     id="path5010"
     inkscape:connector-curvature="0" />
  <path
     style="opacity:0.12121211;fill:#000000;fill-opacity:1;fill-rule:nonzero;stroke:none"
     d="m 1577.6647,1047.8953 c 0,0 -130.9869,81.503 -215.4007,241.5981 -21.8879,-16.7684 -137.0395,-67.2796 -157.1843,-98.9679"
     id="path6587"
     inkscape:connector-curvature="0"
     sodipodi:nodetypes="ccc" />
  <g
     inkscape:groupmode="layer"
     id="layer1"
     inkscape:label="レイヤー" />
  <g
     inkscape:groupmode="layer"
     id="layer2"
     inkscape:label="レイヤー#1"
     style="display:inline" />
  <path
     style="opacity:0.12121211;fill:#000000;fill-opacity:1;fill-rule:nonzero;stroke:none"
     d="m 1277.8503,1545.6457 c 0,0 135.1737,-19.6963 349.2983,387.1391 29.1083,55.3055 -229.5127,-624.7109 -323.101,-512.3044 -86.6736,104.1015 -26.1973,125.1653 -26.1973,125.1653 z"
     id="path6591"
     inkscape:connector-curvature="0"
     sodipodi:nodetypes="cssc" />
  <path
     style="opacity:0.12121211;fill:#000000;fill-opacity:1;fill-rule:nonzero;stroke:none"
     d="m 2450.9108,1606.7729 c 0,0 58.2164,288.1712 58.2164,308.547 0,20.3757 -75.6813,171.7384 -75.6813,171.7384 l 55.3056,-49.484 c 0,0 270.7063,-398.7824 -37.8407,-430.8014 z"
     id="path6593"
     inkscape:connector-curvature="0" />
  <path
     style="opacity:0.12121211;fill:#000000;fill-opacity:1;fill-rule:nonzero;stroke:none"
     d="m 1074.0927,1644.6136 c 0,0 2.9109,355.1201 369.6742,468.642 366.7634,113.522 75.6814,-177.56 75.6814,-177.56 0,0 -177.5601,-241.5981 -445.3556,-291.082 z"
     id="path6595"
     inkscape:connector-curvature="0"
     sodipodi:nodetypes="cscc" />
  <path
     style="opacity:0.12121211;fill:#000000;fill-opacity:1;fill-rule:nonzero;stroke:none"
     d="m 1416.2811,633.49059 c 0,0 50.8635,10.62699 89.1223,-60.75176 8.2316,-15.35756 26.4978,-131.80036 -68.4355,-153.48931 -36.7235,-8.39006 -235.0593,187.56308 -43.3016,-3.32513 63.6255,-63.33702 159.2212,-15.71026 159.6926,105.13915 0.03,7.6517 146.4097,-89.75058 132.157,-75.75919 -70.3346,69.04514 -97.7496,152.51713 -99.4862,160.42369 -8.4515,38.47901 76.3138,96.65797 181.7538,157.34469 57.6069,33.15604 -228.9714,-193.69029 -416.7708,-87.49715 -40.3292,22.80459 65.2684,-42.08499 65.2684,-42.08499 z"
     id="path6597"
     inkscape:connector-curvature="0"
     sodipodi:nodetypes="cssssssssc" />
  <path
     style="opacity:0.12121211;fill:#000000;fill-opacity:1;fill-rule:nonzero;stroke:none"
     d="m 983.85731,1961.893 c 0,0 29.10819,-40.7515 104.78949,5.8216 75.6814,46.5732 -17.4649,-32.019 -17.4649,-32.019 l 93.1463,61.1272 90.2354,87.3246 58.2164,11.6433 -130.9869,-8.7324 -101.8787,-34.9299 -8.7325,-5.8216 -32.019,-64.0381 z"
     id="path6599"
     inkscape:connector-curvature="0" />
  <path
     style="opacity:0.12121211;fill:#000000;fill-opacity:1;fill-rule:nonzero;stroke:none"
     d="m 2465.4649,2084.1474 72.7705,-72.7705 43.6623,8.7325 26.1974,-8.7325 40.7515,8.7325 2.9108,17.4649 -75.6813,32.019 -61.1272,20.3758 z"
     id="path6601"
     inkscape:connector-curvature="0" />
  <path
     style="opacity:0.12121211;fill:#000000;fill-opacity:1;fill-rule:nonzero;stroke:none"
     d="m 2436.3567,2081.2366 c 0,0 331.8335,8.7325 171.7384,52.3948 -160.0951,43.6623 -215.4007,-2.9108 -215.4007,-2.9108 z"
     id="path6603"
     inkscape:connector-curvature="0" />
  <path
     style="opacity:0.12121211;fill:#000000;fill-opacity:1;fill-rule:nonzero;stroke:none"
     d="m 884.88942,2107.434 c 0,0 37.84066,-133.8977 197.93578,-23.2866 160.0951,110.6112 424.9798,55.3056 424.9798,55.3056 0,0 -224.1332,55.3056 -622.91558,-32.019 z"
     id="path6605"
     inkscape:connector-curvature="0" />
</svg>
